<svg id="Layer_1" data-name="Layer 1" xmlns="http://www.w3.org/2000/svg" viewBox="0 0 394 265.61"><defs><style>.cls-1{fill-rule:evenodd;}</style></defs><title>adidas_dark</title><path d="M366.9,332.81c-18.6,0-29.66-9.51-30.33-23h17.49c0,4.2,2.65,10.4,13.93,10.61,7.54,0,11.08-4.42,11.08-7.73-.45-5.31-7.09-5.75-14.19-6.86s-13-2.43-17.47-4.65A18.09,18.09,0,0,1,338.11,285c0-12,10.41-21.48,27.69-21.48,16.8,0,27.43,8.85,28.54,21.92H377.52c-.23-3.53-.89-9.09-10.85-9.09-6.65,0-11,1.35-11.51,6,0,6.87,13.94,6.42,24.79,9.29,10.4,2.66,17,9.08,17,18.16,0,16.6-13.5,23-30.1,23Z" transform="translate(-3 -67.19)"/><polygon points="42.5 154.5 100.72 121.07 131.47 174.19 53.8 174.19 42.5 154.5 42.5 154.5"/><polygon points="172.88 264.06 156.27 264.06 156.27 196.99 172.88 196.99 172.88 264.06 172.88 264.06"/><path class="cls-1" d="M18.94,298a19.36,19.36,0,0,0,19.26,19c10.63,0,19.48-8.62,19.48-19A19.6,19.6,0,0,0,38.2,278.78,19.56,19.56,0,0,0,18.94,298Zm18.81,34.76A35,35,0,0,1,3,298a34.62,34.62,0,0,1,34.75-34.53,34.6,34.6,0,0,1,19.93,6v-5.32H74v67.08H57.68v-4.44a35.19,35.19,0,0,1-19.93,6Z" transform="translate(-3 -67.19)"/><polygon points="258.32 174.19 177.3 33.64 235.53 0 336.24 174.19 258.32 174.19 258.32 174.19"/><path class="cls-1" d="M95.74,298c0,10.41,8.85,19,19.49,19a19.36,19.36,0,0,0,19.25-19,19.37,19.37,0,0,0-38.74,0Zm19,34.76a34.65,34.65,0,1,1,0-69.29,33.84,33.84,0,0,1,19.69,6V241.39h16.59v89.87H134.47v-4.44a35.47,35.47,0,0,1-19.69,6Z" transform="translate(-3 -67.19)"/><polygon points="110.45 94.72 168.9 61.31 234.18 174.19 172.88 174.19 172.88 190.8 156.27 190.8 156.27 174.19 110.45 94.72 110.45 94.72"/><path class="cls-1" d="M275.26,298a19.36,19.36,0,0,0,19.26,19,19.16,19.16,0,0,0,19-19,19.36,19.36,0,0,0-19-19.26A19.56,19.56,0,0,0,275.26,298Zm18.6,34.76A35,35,0,0,1,259.1,298a34.63,34.63,0,0,1,34.76-34.53,33.36,33.36,0,0,1,19.69,6v-5.32h16.61v67.08H313.54v-4.44a34.43,34.43,0,0,1-19.69,6Z" transform="translate(-3 -67.19)"/><path class="cls-1" d="M198.68,298a19.31,19.31,0,0,0,19,19c10.61,0,19.46-8.62,19.46-19a19.6,19.6,0,0,0-19.46-19.26c-10.21,0-19,8.85-19,19.26Zm38.5-56.65h16.38v89.87H237.18v-4.44A35.07,35.07,0,0,1,182.5,298a34.62,34.62,0,0,1,34.76-34.53,34,34,0,0,1,19.92,6V241.39Z" transform="translate(-3 -67.19)"/></svg>