<svg id="Layer_1" data-name="Layer 1" xmlns="http://www.w3.org/2000/svg" viewBox="0 0 140.65 283.33"><title>on_dark</title><path d="M253.34,341.67H221.6V278.31c0-18.7-13.29-32.82-30.85-32.82h0c-17.55,0-30.79,14.2-30.79,33v63.2H128.16v-63.2c0-36.23,27.45-64.66,62.49-64.71h.1c35,0,62.53,28.33,62.59,64.53v63.38Z" transform="translate(-125.94 -58.33)"/><path d="M266.6,80.06,244.87,58.33,224.38,78.83A64.79,64.79,0,1,0,190.75,199h.1a64.77,64.77,0,0,0,55.26-98.45ZM190.81,169.8h-.06a35.6,35.6,0,1,1,.06,0Z" transform="translate(-125.94 -58.33)"/></svg>