<svg id="Layer_1" data-name="Layer 1" xmlns="http://www.w3.org/2000/svg" viewBox="0 0 391.33 263.97"><title>ua_dark</title><path d="M252.36,168.23c-1.27.94-2.78,2-4.6,3.31-11.69,8.28-28.69,14-50.77,14h-1.46c-22.08,0-39.07-5.68-50.77-14-1.82-1.29-3.33-2.37-4.6-3.31,1.27-.94,2.78-2,4.6-3.31,11.69-8.28,28.68-14,50.76-14H197c22.08,0,39.07,5.68,50.77,14,1.82,1.29,3.33,2.37,4.6,3.31m114-68.33s-10-7.67-41.82-19.35c-27.91-10.26-49-12.54-49-12.54l.1,60.18c0,8.47-2.32,16.2-8.8,25-23.71-8.63-46.12-13.94-70.62-13.94h-.06c-24.5,0-46.91,5.31-70.62,13.94-6.48-8.82-8.8-16.55-8.8-25l.1-60.18S95.87,70.29,68,80.55C36.19,92.23,26.14,99.9,26.14,99.9c1.32,27.31,25.23,51.59,62.92,68.33-37.69,16.74-61.6,41-62.92,68.33,0,0,10,7.67,41.82,19.35,27.91,10.26,49,12.54,49,12.54l-.1-60.18c0-8.47,2.32-16.2,8.8-25,23.71,8.63,46.12,13.94,70.62,13.94h.06c24.5,0,46.91-5.31,70.62-13.94,6.48,8.82,8.8,16.55,8.8,25l-.1,60.18s21.05-2.28,49-12.54c31.77-11.68,41.82-19.35,41.82-19.35-1.32-27.31-25.23-51.59-62.92-68.33,37.69-16.74,61.6-41,62.92-68.33" transform="translate(-4.33 -68.01)"/><path d="M159.16,306.51c5.27,0,7.92,3.18,7.92,7.64v2.69c0,3.89-1.67,6.47-5,7.5l5,7.64h-7.57l-4.92-7.5h-5.48l-2.9-5.34h11.85a1.81,1.81,0,0,0,2-2v-2.26a1.81,1.81,0,0,0-2-2H145.29V332h-7V306.51Z" transform="translate(-4.33 -68.01)"/><path d="M236.26,306.51c5.27,0,7.92,3.18,7.92,7.64v2.69c0,3.89-1.67,6.47-5,7.5l5,7.64h-7.57l-4.92-7.5h-5.48l-2.9-5.34h11.85a1.81,1.81,0,0,0,2-2v-2.26a1.81,1.81,0,0,0-2-2H222.39V332h-7V306.51Z" transform="translate(-4.33 -68.01)"/><path d="M379.44,306.51c5.27,0,7.92,3.18,7.92,7.64v2.69c0,3.89-1.67,6.47-5,7.5l5,7.64H379.8l-4.92-7.5H369.4l-2.9-5.34h11.85a1.81,1.81,0,0,0,2-2v-2.26a1.81,1.81,0,0,0-2-2H365.58V332h-7V306.51Z" transform="translate(-4.33 -68.01)"/><path d="M33,324.63c0,4.28-2.44,7.36-7.36,7.36h-14c-4.92,0-7.36-3.08-7.36-7.36V306.51h7v16.77a2,2,0,0,0,2.3,2.3H23.72a2,2,0,0,0,2.3-2.3V306.51h7Z" transform="translate(-4.33 -68.01)"/><path d="M43.5,306.51c1.8,0,2.55.14,3.72,1.42l9.52,10.79,3.57,4.53-.18-5.87V306.51h7V332H61.79c-1.8,0-2.65-.21-3.75-1.45l-9.48-10.83-4-4.78.28,5.94V332h-7V306.51Z" transform="translate(-4.33 -68.01)"/><path d="M94.7,323.35v-8.21a2,2,0,0,0-2.3-2.3H79.31V332h-7V306.51h22c4.92,0,7.36,3.08,7.36,7.36v10.75c0,4.28-2.44,7.36-7.36,7.36H83.62l-3.33-6.33H92.4a2,2,0,0,0,2.3-2.3" transform="translate(-4.33 -68.01)"/><path d="M133.86,312.92H113.47a.52.52,0,0,0-.52.52v11.63a.52.52,0,0,0,.52.52h20.39V332H110.19a3.9,3.9,0,0,1-4.25-4.25v-17a3.91,3.91,0,0,1,4.25-4.25h23.67Zm-.35,8.67h-17l-2.62-4.85h17Z" transform="translate(-4.33 -68.01)"/><path d="M176.87,332l13.37-25.47h7.11c2,0,2.9.43,3.64,1.8L213.35,332h-8.28L203,327.92h-9l-2.9-5.34h9.16L195,312.46,185.08,332Z" transform="translate(-4.33 -68.01)"/><path d="M255.79,306.51a3.21,3.21,0,0,1,3.36,2.05l5.91,11.11,2.23,5.13,2.26-5.13,5.87-11.11a3.26,3.26,0,0,1,3.36-2.05h7.11V332H279V323.6l.46-8.85-3.18,6.65L270.33,332h-6.09l-5.91-10.58-3.26-6.65.53,8.85V332h-6.93V306.51Z" transform="translate(-4.33 -68.01)"/><path d="M297.86,306.51h15.46c4.92,0,7.36,3.08,7.36,7.36v10.75c0,4.28-2.44,7.36-7.36,7.36H297.86c-4.92,0-7.36-3.08-7.36-7.36V313.87c0-4.28,2.44-7.36,7.36-7.36m13.51,19.14a2,2,0,0,0,2.3-2.3v-8.21a2,2,0,0,0-2.3-2.3H299.8a2,2,0,0,0-2.3,2.3v8.21a2,2,0,0,0,2.3,2.3Z" transform="translate(-4.33 -68.01)"/><path d="M353.79,324.63c0,4.28-2.44,7.36-7.36,7.36h-14c-4.92,0-7.36-3.08-7.36-7.36V306.51h7v16.77a2,2,0,0,0,2.3,2.3h10.08a2,2,0,0,0,2.3-2.3V306.51h7Z" transform="translate(-4.33 -68.01)"/><path d="M395.23,329.45a2.08,2.08,0,1,1-2.08-2.08,2.08,2.08,0,0,1,2.08,2.08m.44,0a2.52,2.52,0,1,0-2.52,2.52,2.53,2.53,0,0,0,2.52-2.52" transform="translate(-4.33 -68.01)"/><path d="M393.65,330.66h.46l-.73-1a.62.62,0,0,0,.57-.69c0-.39-.21-.67-.78-.67h-.89v2.4h.41v-1h.25Zm-1-2.09h.38c.33,0,.47.12.47.37s-.13.39-.47.39h-.38Z" transform="translate(-4.33 -68.01)"/></svg>