<svg xmlns="http://www.w3.org/2000/svg" xmlns:xlink="http://www.w3.org/1999/xlink" width="24" height="24" viewBox="0 0 24 24">
  <defs>
    <clipPath id="clip-path">
      <rect id="Rectangle_240" data-name="Rectangle 240" width="24" height="24" fill="#fff" stroke="#707070" stroke-width="1"/>
    </clipPath>
  </defs>
  <g id="Mask_Group_62" data-name="Mask Group 62" clip-path="url(#clip-path)">
    <g id="heart-2-line">
      <path id="Path_268" data-name="Path 268" d="M0,0H24V24H0Z" fill="none"/>
      <path id="Path_269" data-name="Path 269" d="M21.179,12.794l.013.014L12,22,2.808,12.808l.013-.014A6.5,6.5,0,0,1,12,3.64a6.5,6.5,0,0,1,9.179,9.154ZM4.575,5.383a4.5,4.5,0,0,0,0,6.364L12,19.172l7.425-7.425a4.5,4.5,0,0,0-6.364-6.364L8.818,9.626,7.4,8.21l3.162-3.162a4.5,4.5,0,0,0-5.99.334Z" fill="#141414"/>
    </g>
  </g>
</svg>
