<svg xmlns="http://www.w3.org/2000/svg" xmlns:xlink="http://www.w3.org/1999/xlink" width="24" height="24" viewBox="0 0 24 24">
  <defs>
    <clipPath id="clip-path">
      <rect id="Rectangle_49" data-name="Rectangle 49" width="24" height="24" fill="#fff" stroke="#707070" stroke-width="1"/>
    </clipPath>
  </defs>
  <g id="Mask_Group_18" data-name="Mask Group 18" clip-path="url(#clip-path)">
    <g id="heart-2-line">
      <path id="Path_68" data-name="Path 68" d="M0,0H24V24H0Z" fill="none"/>
      <path id="Path_73" data-name="Path 73" d="M0,0,5.4,5.4" transform="translate(17.514 17.832)" fill="none" stroke="#141414" stroke-width="2.161"/>
      <g id="Path_74" data-name="Path 74" transform="translate(0.764)">
        <path id="Path_75" data-name="Path 75" d="M9.186,0A9.186,9.186,0,1,1,0,9.186,9.186,9.186,0,0,1,9.186,0Z" fill="none"/>
        <path id="Path_76" data-name="Path 76" d="M9.186,2.161a7.025,7.025,0,1,0,7.025,7.025A7.033,7.033,0,0,0,9.186,2.161M9.186,0A9.186,9.186,0,1,1,0,9.186,9.186,9.186,0,0,1,9.186,0Z" fill="#141414"/>
      </g>
    </g>
  </g>
</svg>
